<svg id="Capa_1" enable-background="new 0 0 512 512" height="512" viewBox="0 0 512 512" width="512" xmlns="http://www.w3.org/2000/svg"><g><g><path d="m491.397 82.416h-470.789c-11.379 0-20.603-9.224-20.603-20.603 0-11.379 9.224-20.603 20.603-20.603h470.789c11.379 0 20.603 9.224 20.603 20.603 0 11.378-9.224 20.603-20.603 20.603z" fill="#d99668"/></g><g><path d="m221.052 261.151c0-38.375 20.603-38.375 20.603-76.749s-20.603-38.375-20.603-76.749c0-38.373 20.603-38.373 20.603-76.745h-160.278c0 38.373-20.603 38.373-20.603 76.745 0 38.375 20.603 38.375 20.603 76.749 0 38.375-20.603 38.375-20.603 76.749z" fill="#ffee6e"/></g><g><path d="m167.626 261.151c0-38.375 20.603-38.375 20.603-76.749 0-38.375-20.603-38.375-20.603-76.749 0-38.373 20.603-38.373 20.603-76.745h-53.426c0 38.373-20.603 38.373-20.603 76.745 0 38.375 20.603 38.375 20.603 76.749s-20.603 38.374-20.603 76.749z" fill="#ffd883"/></g><g><path d="m511.996 256c0 141.068-114.103 255.486-255.051 255.996-141.32.512-256.945-116.662-256.945-257.982 0-21.661 17.56-39.22 39.22-39.22h433.556c21.662 0 39.222 17.562 39.22 39.224z" fill="#ff9b87"/></g><g><path d="m148.944 254.014c0-21.661 17.56-39.22 39.22-39.22h-148.944c-21.661 0-39.22 17.56-39.22 39.22 0 141.321 115.625 258.495 256.945 257.983 25.725-.093 50.548-3.996 73.954-11.148-105.037-32.388-181.955-131.575-181.955-246.835z" fill="#ff8870"/></g><g><g><g><ellipse cx="174.047" cy="402.765" fill="#fff" rx="30.241" ry="24.082"/></g><g><ellipse cx="337.961" cy="402.765" fill="#fff" rx="30.241" ry="24.082"/></g></g><g><path d="m191.671 387.083c-4.143 0-7.5-3.358-7.5-7.5v-12.363c0-4.142 3.357-7.5 7.5-7.5s7.5 3.358 7.5 7.5v12.362c0 4.143-3.358 7.501-7.5 7.501z" fill="#595959"/></g><g><path d="m320.337 387.083c-4.143 0-7.5-3.358-7.5-7.5v-12.363c0-4.142 3.357-7.5 7.5-7.5s7.5 3.358 7.5 7.5v12.362c0 4.143-3.358 7.501-7.5 7.501z" fill="#595959"/></g><g><path d="m256.004 394.441c-8.668 0-16.911-3.754-22.615-10.3-2.722-3.123-2.396-7.86.727-10.582 3.122-2.721 7.859-2.397 10.582.727 2.854 3.275 6.976 5.154 11.307 5.154s8.452-1.879 11.307-5.154c2.723-3.124 7.457-3.448 10.582-.727 3.122 2.721 3.448 7.459.727 10.582-5.706 6.547-13.949 10.3-22.617 10.3z" fill="#595959"/></g></g><g><path d="m7.561 315.828h497.387c4.596-19.195 7.047-39.224 7.047-59.828v-1.983h-511.995c0 21.259 2.634 41.964 7.561 61.811z" fill="#ff6c52"/></g><g><path d="m7.561 315.828h148.934c-4.927-19.846-7.551-40.553-7.551-61.81h-148.944c0 21.258 2.634 41.963 7.561 61.81z" fill="#ff583e"/></g><g><path d="m491.397 41.209h-470.789c-11.379 0-20.603-9.224-20.603-20.603 0-11.379 9.224-20.603 20.603-20.603h470.789c11.379-.001 20.603 9.224 20.603 20.603 0 11.379-9.224 20.603-20.603 20.603z" fill="#f2b88f"/></g><g><path d="m114.2 20.606c0-11.379 9.225-20.603 20.603-20.603h-114.195c-11.379 0-20.603 9.225-20.603 20.603 0 11.379 9.225 20.603 20.603 20.603h114.196c-11.38 0-20.604-9.224-20.604-20.603z" fill="#e3a67b"/></g></g></svg>